<svg width="428" height="926" viewBox="0 0 428 926" fill="none" xmlns="http://www.w3.org/2000/svg">
<path fill-rule="evenodd" clip-rule="evenodd" d="M428 0H0V926H428V0ZM71 253C65.4771 253 61 257.477 61 263V549C61 554.523 65.4771 559 71 559H357C362.523 559 367 554.523 367 549V263C367 257.477 362.523 253 357 253H71Z" fill="black" fill-opacity="0.4"/>
<mask id="path-2-inside-1_417_406" fill="white">
<path d="M61 262C61 256.477 65.4772 252 71 252H101V292H61V262Z"/>
</mask>
<path d="M59 262C59 255.373 64.3726 250 71 250H101V254H71C66.5817 254 63 257.582 63 262H59ZM101 292H61H101ZM59 292V262C59 255.373 64.3726 250 71 250V254C66.5817 254 63 257.582 63 262V292H59ZM101 252V292V252Z" fill="white" mask="url(#path-2-inside-1_417_406)"/>
<mask id="path-4-inside-2_417_406" fill="white">
<path d="M61 550C61 555.523 65.4772 560 71 560H101V520H61V550Z"/>
</mask>
<path d="M59 550C59 556.627 64.3726 562 71 562H101V558H71C66.5817 558 63 554.418 63 550H59ZM101 520H61H101ZM59 520V550C59 556.627 64.3726 562 71 562V558C66.5817 558 63 554.418 63 550V520H59ZM101 560V520V560Z" fill="white" mask="url(#path-4-inside-2_417_406)"/>
<mask id="path-6-inside-3_417_406" fill="white">
<path d="M327 252H357C362.523 252 367 256.477 367 262V292H327V252Z"/>
</mask>
<path d="M327 250H357C363.627 250 369 255.373 369 262H365C365 257.582 361.418 254 357 254H327V250ZM367 292H327H367ZM327 292V252V292ZM357 250C363.627 250 369 255.373 369 262V292H365V262C365 257.582 361.418 254 357 254V250Z" fill="white" mask="url(#path-6-inside-3_417_406)"/>
<mask id="path-8-inside-4_417_406" fill="white">
<path d="M327 560H357C362.523 560 367 555.523 367 550V520H327V560Z"/>
</mask>
<path d="M327 562H357C363.627 562 369 556.627 369 550H365C365 554.418 361.418 558 357 558H327V562ZM367 520H327H367ZM327 520V560V520ZM357 562C363.627 562 369 556.627 369 550V520H365V550C365 554.418 361.418 558 357 558V562Z" fill="white" mask="url(#path-8-inside-4_417_406)"/>
<line x1="61" y1="405.5" x2="367" y2="405.5" stroke="white" stroke-dasharray="5 5"/>
<rect x="44" y="236" width="340" height="340" rx="9" stroke="white" stroke-width="2" stroke-dasharray="2 10"/>
</svg>
