<svg width="15" height="24" viewBox="0 0 15 24" fill="none" xmlns="http://www.w3.org/2000/svg">
<path d="M5.1547 22.9966C5.08717 22.9966 5.0421 22.9741 4.97457 22.9515C4.77197 22.8615 4.63691 22.6363 4.68183 22.4111L6.01015 14.1033L1.48512 14.0808C1.30498 14.0808 1.14747 13.9682 1.0573 13.8107C0.967314 13.653 0.989772 13.4504 1.07976 13.3154L9.02741 1.22502C9.14001 1.04489 9.38768 0.954896 9.59027 1.02243C9.79287 1.08996 9.95054 1.29255 9.92793 1.51775L9.38754 10.0283L13.7103 10.1409C13.8905 10.1409 14.0706 10.2535 14.1382 10.411C14.2281 10.5687 14.2057 10.7713 14.0931 10.9288L5.53754 22.794C5.47016 22.929 5.31264 23.019 5.15497 22.9966L5.1547 22.9966ZM6.59564 13.1352C6.7307 13.1352 6.86576 13.2027 6.95591 13.3154C7.0459 13.428 7.09097 13.563 7.06851 13.7205L5.98785 20.5199L12.7647 11.1088L8.86976 11.0189C8.7347 11.0189 8.59963 10.9513 8.50949 10.8612C8.4195 10.7712 8.37443 10.636 8.37443 10.5009L8.82468 3.34127L2.40802 13.1126L6.59564 13.1352Z" fill="white" stroke="white" stroke-width="0.5"/>
</svg>
