<svg width="40" height="40" viewBox="0 0 40 40" fill="none" xmlns="http://www.w3.org/2000/svg">
<circle cx="20" cy="20" r="19" stroke="white" stroke-width="2"/>
<path d="M17.1547 30.9966C17.0872 30.9966 17.0421 30.9741 16.9746 30.9515C16.772 30.8615 16.6369 30.6363 16.6818 30.4111L18.0101 22.1033L13.4851 22.0808C13.305 22.0808 13.1475 21.9682 13.0573 21.8107C12.9673 21.653 12.9898 21.4504 13.0798 21.3154L21.0274 9.22502C21.14 9.04489 21.3877 8.9549 21.5903 9.02243C21.7929 9.08996 21.9505 9.29255 21.9279 9.51775L21.3875 18.0283L25.7103 18.1409C25.8905 18.1409 26.0706 18.2535 26.1382 18.411C26.2281 18.5687 26.2057 18.7713 26.0931 18.9288L17.5375 30.794C17.4702 30.929 17.3126 31.019 17.155 30.9966L17.1547 30.9966ZM18.5956 21.1352C18.7307 21.1352 18.8658 21.2027 18.9559 21.3154C19.0459 21.428 19.091 21.563 19.0685 21.7205L17.9879 28.5199L24.7647 19.1088L20.8698 19.0189C20.7347 19.0189 20.5996 18.9513 20.5095 18.8612C20.4195 18.7712 20.3744 18.636 20.3744 18.5009L20.8247 11.3413L14.408 21.1126L18.5956 21.1352Z" fill="white" stroke="white" stroke-width="0.5"/>
</svg>
