<svg width="59" height="61" viewBox="0 0 59 61" fill="none" xmlns="http://www.w3.org/2000/svg">
<path d="M31.4309 0C32.741 0 33.8029 1.04481 33.8029 2.33388V11.4995H56.2324C57.761 11.4995 59 12.7185 59 14.2225V31.8687C59 33.3726 57.761 34.5923 56.2324 34.5923L33.8029 34.5918V58.6656C33.8029 59.9552 32.741 61 31.4309 61H2.37259C1.06248 61 0 59.9552 0 58.6656V2.33542C0 1.04637 1.06243 0.00154135 2.37259 0.00154135L31.4309 0ZM31.4309 2.33388H2.37259V58.664H31.4309L31.4298 34.5902L30.8114 34.5908C30.6878 34.5908 30.5714 34.6478 30.4969 34.7444L24.5592 42.4331C24.2194 42.8722 23.6959 42.978 23.2529 42.8385L23.2193 42.882L23.2187 42.8271C22.7802 42.6746 22.4282 42.2784 22.4282 41.727V14.2212C22.4282 12.7172 23.6672 11.4981 25.1964 11.4981H31.4298L31.4309 2.33388ZM16.901 49.6534C18.3844 49.6534 19.5864 50.8366 19.5864 52.2956C19.5864 53.7546 18.3844 54.9372 16.901 54.9372C15.4182 54.9372 14.2162 53.7545 14.2162 52.2956C14.2162 50.8366 15.4182 49.6534 16.901 49.6534ZM56.2328 13.8344H25.1961C24.9777 13.8344 24.8006 14.0087 24.8006 14.2231V38.2635L28.6074 33.3341C29.1309 32.6562 29.9462 32.2584 30.8111 32.2584H56.233C56.4515 32.2584 56.628 32.0842 56.628 31.8692V14.2231C56.628 14.0087 56.4513 13.8344 56.2328 13.8344ZM33.6833 20.5929C34.7954 20.5929 35.6968 21.4798 35.6968 22.5746C35.6968 23.6688 34.7954 24.5557 33.6833 24.5557C32.5712 24.5557 31.6692 23.6688 31.6692 22.5746C31.6692 21.4798 32.5711 20.5929 33.6833 20.5929ZM41.7382 20.5929C42.8508 20.5929 43.7522 21.4798 43.7522 22.5746C43.7522 23.6688 42.8508 24.5557 41.7382 24.5557C40.6261 24.5557 39.7247 23.6688 39.7247 22.5746C39.7247 21.4798 40.626 20.5929 41.7382 20.5929ZM49.7936 20.5929C50.9057 20.5929 51.8077 21.4798 51.8077 22.5746C51.8077 23.6688 50.9058 24.5557 49.7936 24.5557C48.6815 24.5557 47.7801 23.6688 47.7801 22.5746C47.7801 21.4798 48.6815 20.5929 49.7936 20.5929ZM18.9151 5.55618C19.5704 5.55618 20.1016 6.07885 20.1016 6.7231C20.1016 7.32991 19.6311 7.8287 19.0292 7.88515L18.915 7.89058H14.8875C14.2322 7.89058 13.701 7.3679 13.701 6.72311C13.701 6.11631 14.1715 5.61806 14.7734 5.5616L14.8875 5.55618H18.9151Z" fill="#333333"/>
</svg>
