<svg width="15" height="20" viewBox="0 0 15 20" fill="none" xmlns="http://www.w3.org/2000/svg">
<path d="M4.82509 5.35708e-05C4.65857 -0.000643956 4.49862 0.0653421 4.38093 0.183087C4.26308 0.300971 4.19726 0.460844 4.19781 0.627546V1.09379H0.62728C0.460763 1.09309 0.300805 1.15908 0.183115 1.27682C0.0652701 1.39471 -0.000553442 1.55458 3.50575e-06 1.72128V19.3775C0.000700797 19.5432 0.0672232 19.7018 0.184789 19.8186C0.302355 19.9354 0.461617 20.0007 0.627312 20H14.215C14.3799 19.9993 14.5379 19.9336 14.6544 19.817C14.7709 19.7003 14.8368 19.5424 14.8375 19.3775V1.72129C14.838 1.55541 14.7729 1.39623 14.6562 1.27861C14.5394 1.16087 14.3807 1.09447 14.2151 1.09377H10.641V0.627521C10.6417 0.461648 10.5764 0.302468 10.4597 0.184848C10.3431 0.0671028 10.1844 0.000699991 10.0187 0L4.82509 5.35708e-05ZM5.44737 1.25004H9.38992V2.18642L5.44737 2.18628V1.25004ZM1.25099 2.34378H4.19792V2.81377C4.19834 2.97964 4.26458 3.13868 4.38229 3.25573C4.49999 3.37277 4.65925 3.4382 4.8252 3.4375H10.0187C10.1837 3.43681 10.3419 3.37082 10.4584 3.25405C10.575 3.13715 10.6407 2.97881 10.641 2.81377V2.34378H13.593V18.75H1.25086L1.25099 2.34378ZM7.42204 6.77729C4.65822 6.77729 2.40415 9.03201 2.40415 11.7969C2.40415 14.5617 4.65811 16.8165 7.42204 16.8165C10.1859 16.8165 12.4399 14.5617 12.4399 11.7969C12.4399 9.03201 10.186 6.77729 7.42204 6.77729ZM7.42204 8.02728C9.51059 8.02728 11.1904 9.70751 11.1904 11.7969C11.1904 13.8862 9.5107 15.5665 7.42204 15.5665C5.33338 15.5665 3.65372 13.8862 3.65372 11.7969C3.65372 9.70751 5.33338 8.02728 7.42204 8.02728ZM9.40502 10.0524C9.28634 10.0606 9.1724 10.1026 9.07673 10.1732L6.48486 12.0371L5.90888 11.2107V11.2108C5.81698 11.0681 5.67082 10.9688 5.50431 10.936C5.33765 10.9032 5.165 10.9396 5.02583 11.0368C4.88666 11.1341 4.79293 11.2838 4.76644 11.4516C4.73994 11.6193 4.78275 11.7906 4.88512 11.926L5.82104 13.2737C5.91657 13.4123 6.06384 13.5065 6.22965 13.535C6.39545 13.5634 6.56574 13.5238 6.70198 13.4252L9.80636 11.1876C9.95641 11.0823 10.0526 10.9164 10.0697 10.734C10.0867 10.5515 10.0227 10.3707 9.89477 10.2395C9.76675 10.1083 9.58768 10.0399 9.40498 10.0523L9.40502 10.0524Z" fill="black"/>
</svg>
